<mxfile host="app.diagrams.net" agent="Mozilla/5.0 (Windows NT 10.0; Win64; x64) AppleWebKit/537.36 (KHTML, like Gecko) Chrome/137.0.0.0 Safari/537.36 Edg/137.0.0.0" version="27.2.0">
  <diagram id="Ht1M8jgEwFfnCIfOTk4-" name="Page-1">
    <mxGraphModel dx="1417" dy="1933" grid="1" gridSize="10" guides="1" tooltips="1" connect="1" arrows="1" fold="1" page="1" pageScale="1" pageWidth="1169" pageHeight="827" background="none" math="0" shadow="1">
      <root>
        <mxCell id="0" />
        <mxCell id="1" parent="0" />
        <mxCell id="UEzPUAAOIrF-is8g5C7q-109" value="Dev" style="outlineConnect=0;gradientColor=none;fontColor=light-dark(#000000,#606981);strokeColor=light-dark(#000000,#606981);fillColor=#879196;dashed=0;verticalLabelPosition=bottom;verticalAlign=top;align=center;fontSize=12;fontStyle=0;aspect=fixed;shape=mxgraph.aws4.illustration_desktop;pointerEvents=1;labelBackgroundColor=none;points=[[1,0.5,0,0,0]];rounded=1;labelBorderColor=none;textShadow=0;shadow=1;snapToPoint=0;fixDash=0;editable=1;movable=1;resizable=1;rotatable=1;deletable=1;locked=0;connectable=1;metaEdit=0;backgroundOutline=0;enumerate=0;comic=0;" parent="1" vertex="1">
          <mxGeometry x="156.04999999999998" y="360" width="87.91" height="80" as="geometry" />
        </mxCell>
        <mxCell id="duLnAon6A_W3yUr4zGyu-5" value="GitHub Actions" style="shape=image;editableCssRules=.*;image=data:image/svg+xml,PHN2ZyB2aWV3Qm94PSIwIDAgMjQgMjQiIHhtbG5zPSJodHRwOi8vd3d3LnczLm9yZy8yMDAwL3N2ZyI+PHN0eWxlPip7ZmlsbDojMjA4OEZGfTwvc3R5bGU+PHBhdGggZD0iTTEwLjk4NCAxMy44MzZhLjUuNSAwIDAgMS0uMzUzLS4xNDZsLS43NDUtLjc0M2EuNS41IDAgMSAxIC43MDYtLjcwOGwuMzkyLjM5MSAxLjE4MS0xLjE4YS41LjUgMCAwIDEgLjcwOC43MDdsLTEuNTM1IDEuNTMzYS41MDQuNTA0IDAgMCAxLS4zNTQuMTQ2em05LjM1My0uMTQ3bDEuNTM0LTEuNTMyYS41LjUgMCAwIDAtLjcwNy0uNzA3bC0xLjE4MSAxLjE4LS4zOTItLjM5MWEuNS41IDAgMSAwLS43MDYuNzA4bC43NDYuNzQzYS40OTcuNDk3IDAgMCAwIC43MDYtLjAwMXpNNC41MjcgNy40NTJsMi41NTctMS41ODVBMSAxIDAgMCAwIDcuMDkgNC4xN0w0LjUzMyAyLjU2QTEgMSAwIDAgMCAzIDMuNDA2djMuMTk2YTEuMDAxIDEuMDAxIDAgMCAwIDEuNTI3Ljg1em0yLjAzLTIuNDM2TDQgNi42MDJWMy40MDZsMi41NTcgMS42MXpNMjQgMTIuNWMwIDEuOTMtMS41NyAzLjUtMy41IDMuNWEzLjUwMyAzLjUwMyAwIDAgMS0zLjQ2LTNoLTIuMDhhMy41MDMgMy41MDMgMCAwIDEtMy40NiAzIDMuNTAyIDMuNTAyIDAgMCAxLTMuNDYtM2gtLjU1OGMtLjk3MiAwLTEuODUtLjM5OS0yLjQ4Mi0xLjA0MlYxN2MwIDEuNjU0IDEuMzQ2IDMgMyAzaC4wNGMuMjQ0LTEuNjkzIDEuNy0zIDMuNDYtMyAxLjkzIDAgMy41IDEuNTcgMy41IDMuNVMxMy40MyAyNCAxMS41IDI0YTMuNTAyIDMuNTAyIDAgMCAxLTMuNDYtM0g4Yy0yLjIwNiAwLTQtMS43OTQtNC00VjkuODk5QTUuMDA4IDUuMDA4IDAgMCAxIDAgNWMwLTIuNzU3IDIuMjQzLTUgNS01czUgMi4yNDMgNSA1YTUuMDA1IDUuMDA1IDAgMCAxLTQuOTUyIDQuOTk4QTIuNDgyIDIuNDgyIDAgMCAwIDcuNDgyIDEyaC41NThjLjI0NC0xLjY5MyAxLjctMyAzLjQ2LTNhMy41MDIgMy41MDIgMCAwIDEgMy40NiAzaDIuMDhhMy41MDMgMy41MDMgMCAwIDEgMy40Ni0zYzEuOTMgMCAzLjUgMS41NyAzLjUgMy41em0tMTUgOGMwIDEuMzc4IDEuMTIyIDIuNSAyLjUgMi41czIuNS0xLjEyMiAyLjUtMi41LTEuMTIyLTIuNS0yLjUtMi41UzkgMTkuMTIyIDkgMjAuNXpNNSA5YzIuMjA2IDAgNC0xLjc5NCA0LTRTNy4yMDYgMSA1IDEgMSAyLjc5NCAxIDVzMS43OTQgNCA0IDR6bTkgMy41YzAtMS4zNzgtMS4xMjItMi41LTIuNS0yLjVTOSAxMS4xMjIgOSAxMi41czEuMTIyIDIuNSAyLjUgMi41IDIuNS0xLjEyMiAyLjUtMi41em05IDBjMC0xLjM3OC0xLjEyMi0yLjUtMi41LTIuNVMxOCAxMS4xMjIgMTggMTIuNXMxLjEyMiAyLjUgMi41IDIuNSAyLjUtMS4xMjIgMi41LTIuNXptLTEzIDhhLjUuNSAwIDEgMCAxIDAgLjUuNSAwIDAgMC0xIDB6bTIgMGEuNS41IDAgMSAwIDEgMCAuNS41IDAgMCAwLTEgMHptMTIgMGMwIDEuOTMtMS41NyAzLjUtMy41IDMuNWEzLjUwMyAzLjUwMyAwIDAgMS0zLjQ2LTMuMDAyYy0uMDA3LjAwMS0uMDEzLjAwNS0uMDIxLjAwNWwtLjUwNi4wMTdoLS4wMTdhLjUuNSAwIDAgMS0uMDE2LS45OTlsLjUwNi0uMDE3Yy4wMTgtLjAwMi4wMzUuMDA2LjA1Mi4wMDdBMy41MDMgMy41MDMgMCAwIDEgMjAuNSAxN2MxLjkzIDAgMy41IDEuNTcgMy41IDMuNXptLTEgMGMwLTEuMzc4LTEuMTIyLTIuNS0yLjUtMi41UzE4IDE5LjEyMiAxOCAyMC41czEuMTIyIDIuNSAyLjUgMi41IDIuNS0xLjEyMiAyLjUtMi41eiIvPjwvc3ZnPg==;labelPosition=center;verticalLabelPosition=bottom;align=center;verticalAlign=top;labelBackgroundColor=none;fontColor=light-dark(#000000,#606981);rounded=1;labelBorderColor=none;textShadow=0;strokeColor=light-dark(#000000,#606981);shadow=1;snapToPoint=0;fixDash=0;editable=1;movable=1;resizable=1;rotatable=1;deletable=1;locked=0;connectable=1;metaEdit=0;backgroundOutline=0;enumerate=0;comic=0;" parent="1" vertex="1">
          <mxGeometry x="160.00000000000003" y="40" width="80" height="80" as="geometry" />
        </mxCell>
        <mxCell id="duLnAon6A_W3yUr4zGyu-52" value="AWS Cloud" style="points=[[0,0],[0.25,0],[0.5,0],[0.75,0],[1,0],[1,0.25],[1,0.5],[1,0.75],[1,1],[0.75,1],[0.5,1],[0.25,1],[0,1],[0,0.75],[0,0.5],[0,0.25]];outlineConnect=0;gradientColor=none;fontSize=12;fontStyle=0;container=1;pointerEvents=0;collapsible=0;recursiveResize=0;shape=mxgraph.aws4.group;grIcon=mxgraph.aws4.group_aws_cloud_alt;strokeColor=light-dark(#000000,#606981);fillColor=none;verticalAlign=top;align=left;spacingLeft=30;fontColor=light-dark(#000000,#606981);dashed=0;rounded=1;labelBorderColor=none;textShadow=0;labelBackgroundColor=none;shadow=1;snapToPoint=0;fixDash=0;editable=1;movable=1;resizable=1;rotatable=1;deletable=1;locked=0;connectable=1;metaEdit=0;backgroundOutline=0;enumerate=0;comic=0;" parent="1" vertex="1">
          <mxGeometry x="320" y="-520" width="760" height="1240" as="geometry" />
        </mxCell>
        <mxCell id="duLnAon6A_W3yUr4zGyu-7" value="EventBridge Scheduler" style="outlineConnect=0;fontColor=light-dark(#000000,#606981);gradientColor=none;fillColor=#E7157B;strokeColor=light-dark(#000000,#606981);dashed=0;verticalLabelPosition=bottom;verticalAlign=top;align=center;fontSize=12;fontStyle=0;aspect=fixed;pointerEvents=1;shape=mxgraph.aws4.eventbridge_scheduler;labelBackgroundColor=none;points=[[0.5,1,0,0,0],[1,0.5,0,0,0]];rounded=1;labelBorderColor=none;textShadow=0;snapToPoint=0;fixDash=0;editable=1;movable=1;resizable=1;rotatable=1;deletable=1;locked=0;connectable=1;metaEdit=0;backgroundOutline=0;enumerate=0;comic=0;shadow=1;" parent="duLnAon6A_W3yUr4zGyu-52" vertex="1">
          <mxGeometry x="40" y="80" width="80" height="80" as="geometry" />
        </mxCell>
        <mxCell id="duLnAon6A_W3yUr4zGyu-1" value="Step Functions" style="points=[[0,0,0],[0.25,0,0],[0.5,0,0],[0.75,0,0],[1,0,0],[0,1,0],[0.25,1,0],[0.5,1,0],[0.75,1,0],[1,1,0],[0,0.25,0],[0,0.5,0],[0,0.75,0],[1,0.25,0],[1,0.5,0],[1,0.75,0]];outlineConnect=0;fontColor=light-dark(#000000,#606981);fillColor=#E7157B;strokeColor=light-dark(#000000,#606981);dashed=0;verticalLabelPosition=bottom;verticalAlign=top;align=center;fontSize=12;fontStyle=0;aspect=fixed;shape=mxgraph.aws4.resourceIcon;resIcon=mxgraph.aws4.step_functions;labelBackgroundColor=none;rounded=1;labelBorderColor=none;textShadow=0;snapToPoint=0;fixDash=0;editable=1;movable=1;resizable=1;rotatable=1;deletable=1;locked=0;connectable=1;metaEdit=0;backgroundOutline=0;enumerate=0;comic=0;shadow=1;" parent="duLnAon6A_W3yUr4zGyu-52" vertex="1">
          <mxGeometry x="200" y="80" width="80" height="80" as="geometry" />
        </mxCell>
        <mxCell id="duLnAon6A_W3yUr4zGyu-45" value="AWS Step Functions workflow" style="points=[[0,0],[0.25,0],[0.5,0],[0.75,0],[1,0],[1,0.25],[1,0.5],[1,0.75],[1,1],[0.75,1],[0.5,1],[0.25,1],[0,1],[0,0.75],[0,0.5],[0,0.25]];outlineConnect=0;gradientColor=none;fontSize=12;fontStyle=0;container=1;pointerEvents=0;collapsible=0;recursiveResize=0;shape=mxgraph.aws4.group;grIcon=mxgraph.aws4.group_aws_step_functions_workflow;strokeColor=light-dark(#000000,#606981);fillColor=none;verticalAlign=top;align=left;spacingLeft=30;fontColor=light-dark(#000000,#606981);dashed=0;rounded=1;labelBorderColor=none;textShadow=0;labelBackgroundColor=none;snapToPoint=0;fixDash=0;editable=1;movable=1;resizable=1;rotatable=1;deletable=1;locked=0;connectable=1;metaEdit=0;backgroundOutline=0;enumerate=0;comic=0;shadow=1;" parent="duLnAon6A_W3yUr4zGyu-52" vertex="1">
          <mxGeometry x="120" y="240" width="240" height="520" as="geometry" />
        </mxCell>
        <mxCell id="duLnAon6A_W3yUr4zGyu-26" value="retrieveIdList" style="points=[[0,0,0],[0.25,0,0],[0.5,0,0],[0.75,0,0],[1,0,0],[0,1,0],[0.25,1,0],[0.5,1,0],[0.75,1,0],[1,1,0],[0,0.25,0],[0,0.5,0],[0,0.75,0],[1,0.25,0],[1,0.5,0],[1,0.75,0]];outlineConnect=0;fontColor=light-dark(#000000,#606981);fillColor=#ED7100;strokeColor=light-dark(#000000,#606981);dashed=0;verticalLabelPosition=bottom;verticalAlign=top;align=center;fontSize=12;fontStyle=0;aspect=fixed;shape=mxgraph.aws4.resourceIcon;resIcon=mxgraph.aws4.lambda;labelBackgroundColor=none;rounded=1;labelBorderColor=none;textShadow=0;snapToPoint=0;fixDash=0;editable=1;movable=1;resizable=1;rotatable=1;deletable=1;locked=0;connectable=1;metaEdit=0;backgroundOutline=0;enumerate=0;comic=0;shadow=1;" parent="duLnAon6A_W3yUr4zGyu-45" vertex="1">
          <mxGeometry x="80" y="40" width="80" height="80" as="geometry" />
        </mxCell>
        <mxCell id="cWZ5Do7VtlpuuYIQmILy-10" value="storeData" style="points=[[0,0,0],[0.25,0,0],[0.5,0,0],[0.75,0,0],[1,0,0],[0,1,0],[0.25,1,0],[0.5,1,0],[0.75,1,0],[1,1,0],[0,0.25,0],[0,0.5,0],[0,0.75,0],[1,0.25,0],[1,0.5,0],[1,0.75,0]];outlineConnect=0;fontColor=light-dark(#000000,#606981);fillColor=#ED7100;strokeColor=light-dark(#000000,#606981);dashed=0;verticalLabelPosition=bottom;verticalAlign=top;align=center;fontSize=12;fontStyle=0;aspect=fixed;shape=mxgraph.aws4.resourceIcon;resIcon=mxgraph.aws4.lambda;labelBackgroundColor=none;rounded=1;labelBorderColor=none;textShadow=0;snapToPoint=0;fixDash=0;editable=1;movable=1;resizable=1;rotatable=1;deletable=1;locked=0;connectable=1;metaEdit=0;backgroundOutline=0;enumerate=0;comic=0;shadow=1;" parent="duLnAon6A_W3yUr4zGyu-45" vertex="1">
          <mxGeometry x="80" y="400" width="80" height="80" as="geometry" />
        </mxCell>
        <mxCell id="duLnAon6A_W3yUr4zGyu-58" value="fetchData" style="points=[[0,0,0],[0.25,0,0],[0.5,0,0],[0.75,0,0],[1,0,0],[0,1,0],[0.25,1,0],[0.5,1,0],[0.75,1,0],[1,1,0],[0,0.25,0],[0,0.5,0],[0,0.75,0],[1,0.25,0],[1,0.5,0],[1,0.75,0]];outlineConnect=0;fontColor=light-dark(#000000,#606981);fillColor=#ED7100;strokeColor=light-dark(#000000,#606981);dashed=0;verticalLabelPosition=bottom;verticalAlign=top;align=center;fontSize=12;fontStyle=0;aspect=fixed;shape=mxgraph.aws4.resourceIcon;resIcon=mxgraph.aws4.lambda;labelBackgroundColor=none;rounded=1;labelBorderColor=none;textShadow=0;snapToPoint=0;fixDash=0;editable=1;movable=1;resizable=1;rotatable=1;deletable=1;locked=0;connectable=1;metaEdit=0;backgroundOutline=0;enumerate=0;comic=0;shadow=1;" parent="duLnAon6A_W3yUr4zGyu-45" vertex="1">
          <mxGeometry x="80" y="160" width="80" height="80" as="geometry" />
        </mxCell>
        <mxCell id="cWZ5Do7VtlpuuYIQmILy-9" value="cleanData" style="points=[[0,0,0],[0.25,0,0],[0.5,0,0],[0.75,0,0],[1,0,0],[0,1,0],[0.25,1,0],[0.5,1,0],[0.75,1,0],[1,1,0],[0,0.25,0],[0,0.5,0],[0,0.75,0],[1,0.25,0],[1,0.5,0],[1,0.75,0]];outlineConnect=0;fontColor=light-dark(#000000,#606981);fillColor=#ED7100;strokeColor=light-dark(#000000,#606981);dashed=0;verticalLabelPosition=bottom;verticalAlign=top;align=center;fontSize=12;fontStyle=0;aspect=fixed;shape=mxgraph.aws4.resourceIcon;resIcon=mxgraph.aws4.lambda;labelBackgroundColor=none;rounded=1;labelBorderColor=none;textShadow=0;snapToPoint=0;fixDash=0;editable=1;movable=1;resizable=1;rotatable=1;deletable=1;locked=0;connectable=1;metaEdit=0;backgroundOutline=0;enumerate=0;comic=0;shadow=1;" parent="duLnAon6A_W3yUr4zGyu-45" vertex="1">
          <mxGeometry x="80" y="280" width="80" height="80" as="geometry" />
        </mxCell>
        <mxCell id="cWZ5Do7VtlpuuYIQmILy-26" value="" style="edgeStyle=orthogonalEdgeStyle;endArrow=none;elbow=vertical;startArrow=block;startFill=1;strokeColor=light-dark(#000000,#606981);rounded=1;exitX=0.5;exitY=0;exitDx=0;exitDy=0;exitPerimeter=0;entryX=0.5;entryY=1;entryDx=0;entryDy=0;entryPerimeter=0;fontColor=light-dark(#000000,#606981);labelBorderColor=none;textShadow=0;labelBackgroundColor=none;shadow=1;snapToPoint=0;fixDash=0;editable=1;movable=1;resizable=1;rotatable=1;deletable=1;locked=0;connectable=1;metaEdit=0;backgroundOutline=0;enumerate=0;comic=0;" parent="duLnAon6A_W3yUr4zGyu-45" source="cWZ5Do7VtlpuuYIQmILy-9" target="duLnAon6A_W3yUr4zGyu-58" edge="1">
          <mxGeometry width="100" relative="1" as="geometry">
            <mxPoint x="320" y="80" as="sourcePoint" />
            <mxPoint x="880" y="200" as="targetPoint" />
          </mxGeometry>
        </mxCell>
        <mxCell id="cWZ5Do7VtlpuuYIQmILy-28" value="" style="edgeStyle=orthogonalEdgeStyle;endArrow=block;elbow=vertical;startArrow=none;endFill=1;strokeColor=light-dark(#000000,#606981);rounded=1;exitX=0.5;exitY=1;exitDx=0;exitDy=0;exitPerimeter=0;entryX=0.5;entryY=0;entryDx=0;entryDy=0;entryPerimeter=0;fontColor=light-dark(#000000,#606981);labelBorderColor=none;textShadow=0;labelBackgroundColor=none;snapToPoint=0;fixDash=0;editable=1;movable=1;resizable=1;rotatable=1;deletable=1;locked=0;connectable=1;metaEdit=0;backgroundOutline=0;enumerate=0;comic=0;shadow=1;" parent="duLnAon6A_W3yUr4zGyu-45" source="cWZ5Do7VtlpuuYIQmILy-9" target="cWZ5Do7VtlpuuYIQmILy-10" edge="1">
          <mxGeometry width="100" relative="1" as="geometry">
            <mxPoint x="10" y="80" as="sourcePoint" />
            <mxPoint x="130" y="80" as="targetPoint" />
          </mxGeometry>
        </mxCell>
        <mxCell id="cWZ5Do7VtlpuuYIQmILy-30" value="" style="edgeStyle=orthogonalEdgeStyle;endArrow=none;elbow=vertical;startArrow=block;startFill=1;strokeColor=light-dark(#000000,#606981);rounded=1;exitX=0.5;exitY=0;exitDx=0;exitDy=0;exitPerimeter=0;entryX=0.5;entryY=1;entryDx=0;entryDy=0;entryPerimeter=0;fontColor=light-dark(#000000,#606981);labelBorderColor=none;textShadow=0;labelBackgroundColor=none;shadow=1;snapToPoint=0;fixDash=0;editable=1;movable=1;resizable=1;rotatable=1;deletable=1;locked=0;connectable=1;metaEdit=0;backgroundOutline=0;enumerate=0;comic=0;" parent="duLnAon6A_W3yUr4zGyu-45" source="duLnAon6A_W3yUr4zGyu-58" target="duLnAon6A_W3yUr4zGyu-26" edge="1">
          <mxGeometry width="100" relative="1" as="geometry">
            <mxPoint x="280" y="80" as="sourcePoint" />
            <mxPoint x="240" y="80" as="targetPoint" />
          </mxGeometry>
        </mxCell>
        <mxCell id="duLnAon6A_W3yUr4zGyu-12" value="RDS" style="points=[[0,0,0],[0.25,0,0],[0.5,0,0],[0.75,0,0],[1,0,0],[0,1,0],[0.25,1,0],[0.5,1,0],[0.75,1,0],[1,1,0],[0,0.25,0],[0,0.5,0],[0,0.75,0],[1,0.25,0],[1,0.5,0],[1,0.75,0]];outlineConnect=0;fontColor=light-dark(#000000,#606981);fillColor=light-dark(#4A65E3,#4A65E3);strokeColor=light-dark(#000000,#606981);dashed=0;verticalLabelPosition=bottom;verticalAlign=top;align=center;fontSize=12;fontStyle=0;shape=mxgraph.aws4.resourceIcon;resIcon=mxgraph.aws4.aurora;labelBackgroundColor=none;rounded=1;labelBorderColor=none;textShadow=0;snapToPoint=0;fixDash=0;editable=1;movable=1;resizable=1;rotatable=1;deletable=1;locked=0;connectable=1;metaEdit=0;backgroundOutline=0;enumerate=0;comic=0;shadow=1;" parent="duLnAon6A_W3yUr4zGyu-52" vertex="1">
          <mxGeometry x="440" y="640" width="80" height="80" as="geometry" />
        </mxCell>
        <mxCell id="duLnAon6A_W3yUr4zGyu-97" value="" style="edgeStyle=orthogonalEdgeStyle;endArrow=block;elbow=vertical;startArrow=none;endFill=1;strokeColor=light-dark(#000000,#606981);rounded=1;exitX=0.5;exitY=1;exitDx=0;exitDy=0;exitPerimeter=0;entryX=0.5;entryY=0;entryDx=0;entryDy=0;entryPerimeter=0;fontColor=light-dark(#000000,#606981);labelBorderColor=none;textShadow=0;labelBackgroundColor=none;snapToPoint=0;fixDash=0;editable=1;movable=1;resizable=1;rotatable=1;deletable=1;locked=0;connectable=1;metaEdit=0;backgroundOutline=0;enumerate=0;comic=0;shadow=1;" parent="duLnAon6A_W3yUr4zGyu-52" source="duLnAon6A_W3yUr4zGyu-1" target="duLnAon6A_W3yUr4zGyu-26" edge="1">
          <mxGeometry width="100" relative="1" as="geometry">
            <mxPoint x="290" y="220" as="sourcePoint" />
            <mxPoint x="390" y="220" as="targetPoint" />
          </mxGeometry>
        </mxCell>
        <mxCell id="duLnAon6A_W3yUr4zGyu-48" value="API Gateway" style="points=[[0,0,0],[0.25,0,0],[0.5,0,0],[0.75,0,0],[1,0,0],[0,1,0],[0.25,1,0],[0.5,1,0],[0.75,1,0],[1,1,0],[0,0.25,0],[0,0.5,0],[0,0.75,0],[1,0.25,0],[1,0.5,0],[1,0.75,0]];outlineConnect=0;fontColor=light-dark(#000000,#606981);fillColor=#8C4FFF;strokeColor=light-dark(#000000,#606981);dashed=0;verticalLabelPosition=bottom;verticalAlign=top;align=center;fontSize=12;fontStyle=0;aspect=fixed;shape=mxgraph.aws4.resourceIcon;resIcon=mxgraph.aws4.api_gateway;labelBackgroundColor=none;rounded=1;labelBorderColor=none;textShadow=0;snapToPoint=0;fixDash=0;editable=1;movable=1;resizable=1;rotatable=1;deletable=1;locked=0;connectable=1;metaEdit=0;backgroundOutline=0;enumerate=0;comic=0;shadow=1;" parent="duLnAon6A_W3yUr4zGyu-52" vertex="1">
          <mxGeometry x="600" y="800" width="78" height="78" as="geometry" />
        </mxCell>
        <mxCell id="duLnAon6A_W3yUr4zGyu-4" value="Route 53" style="points=[[0,0,0],[0.25,0,0],[0.5,0,0],[0.75,0,0],[1,0,0],[0,1,0],[0.25,1,0],[0.5,1,0],[0.75,1,0],[1,1,0],[0,0.25,0],[0,0.5,0],[0,0.75,0],[1,0.25,0],[1,0.5,0],[1,0.75,0]];outlineConnect=0;fontColor=light-dark(#000000,#606981);fillColor=#8C4FFF;strokeColor=light-dark(#000000,#606981);dashed=0;verticalLabelPosition=bottom;verticalAlign=top;align=center;fontSize=12;fontStyle=0;aspect=fixed;shape=mxgraph.aws4.resourceIcon;resIcon=mxgraph.aws4.route_53;labelBackgroundColor=none;rounded=1;labelBorderColor=none;textShadow=0;snapToPoint=0;fixDash=0;editable=1;movable=1;resizable=1;rotatable=1;deletable=1;locked=0;connectable=1;metaEdit=0;backgroundOutline=0;enumerate=0;comic=0;shadow=1;" parent="duLnAon6A_W3yUr4zGyu-52" vertex="1">
          <mxGeometry x="600" y="560" width="80" height="80" as="geometry" />
        </mxCell>
        <mxCell id="duLnAon6A_W3yUr4zGyu-139" value="" style="edgeStyle=orthogonalEdgeStyle;endArrow=block;elbow=vertical;startArrow=block;startFill=1;endFill=1;strokeColor=light-dark(#000000,#606981);rounded=1;entryX=0.5;entryY=1;entryDx=0;entryDy=0;entryPerimeter=0;fontColor=light-dark(#000000,#606981);labelBorderColor=none;textShadow=0;labelBackgroundColor=none;snapToPoint=0;fixDash=0;editable=1;movable=1;resizable=1;rotatable=1;deletable=1;locked=0;connectable=1;metaEdit=0;backgroundOutline=0;enumerate=0;comic=0;shadow=1;exitX=0.5;exitY=0;exitDx=0;exitDy=0;exitPerimeter=0;" parent="duLnAon6A_W3yUr4zGyu-52" source="duLnAon6A_W3yUr4zGyu-48" target="duLnAon6A_W3yUr4zGyu-4" edge="1">
          <mxGeometry width="100" relative="1" as="geometry">
            <mxPoint x="728" y="400" as="sourcePoint" />
            <mxPoint x="830" y="580" as="targetPoint" />
          </mxGeometry>
        </mxCell>
        <mxCell id="cWZ5Do7VtlpuuYIQmILy-2" value="" style="edgeStyle=orthogonalEdgeStyle;html=1;endArrow=block;elbow=vertical;startArrow=none;endFill=1;strokeColor=#545B64;rounded=1;exitX=1;exitY=0.5;exitDx=0;exitDy=0;exitPerimeter=0;entryX=0;entryY=0.5;entryDx=0;entryDy=0;entryPerimeter=0;curved=0;" parent="duLnAon6A_W3yUr4zGyu-52" source="duLnAon6A_W3yUr4zGyu-7" target="duLnAon6A_W3yUr4zGyu-1" edge="1">
          <mxGeometry width="100" relative="1" as="geometry">
            <mxPoint x="140" y="200" as="sourcePoint" />
            <mxPoint x="240" y="200" as="targetPoint" />
          </mxGeometry>
        </mxCell>
        <mxCell id="cWZ5Do7VtlpuuYIQmILy-3" value="AWS Step Functions workflow" style="points=[[0,0],[0.25,0],[0.5,0],[0.75,0],[1,0],[1,0.25],[1,0.5],[1,0.75],[1,1],[0.75,1],[0.5,1],[0.25,1],[0,1],[0,0.75],[0,0.5],[0,0.25]];outlineConnect=0;gradientColor=none;fontSize=12;fontStyle=0;container=1;pointerEvents=0;collapsible=0;recursiveResize=0;shape=mxgraph.aws4.group;grIcon=mxgraph.aws4.group_aws_step_functions_workflow;strokeColor=light-dark(#000000,#606981);fillColor=none;verticalAlign=top;align=left;spacingLeft=30;fontColor=light-dark(#000000,#606981);dashed=0;rounded=1;labelBorderColor=none;textShadow=0;labelBackgroundColor=none;snapToPoint=0;fixDash=0;editable=1;movable=1;resizable=1;rotatable=1;deletable=1;locked=0;connectable=1;metaEdit=0;backgroundOutline=0;enumerate=0;comic=0;shadow=1;" parent="duLnAon6A_W3yUr4zGyu-52" vertex="1">
          <mxGeometry x="120" y="880" width="240" height="320" as="geometry" />
        </mxCell>
        <mxCell id="cWZ5Do7VtlpuuYIQmILy-4" value="queryData" style="points=[[0,0,0],[0.25,0,0],[0.5,0,0],[0.75,0,0],[1,0,0],[0,1,0],[0.25,1,0],[0.5,1,0],[0.75,1,0],[1,1,0],[0,0.25,0],[0,0.5,0],[0,0.75,0],[1,0.25,0],[1,0.5,0],[1,0.75,0]];outlineConnect=0;fontColor=light-dark(#000000,#606981);fillColor=#ED7100;strokeColor=light-dark(#000000,#606981);dashed=0;verticalLabelPosition=bottom;verticalAlign=top;align=center;fontSize=12;fontStyle=0;aspect=fixed;shape=mxgraph.aws4.resourceIcon;resIcon=mxgraph.aws4.lambda;labelBackgroundColor=none;rounded=1;labelBorderColor=none;textShadow=0;snapToPoint=0;fixDash=0;editable=1;movable=1;resizable=1;rotatable=1;deletable=1;locked=0;connectable=1;metaEdit=0;backgroundOutline=0;enumerate=0;comic=0;shadow=1;" parent="cWZ5Do7VtlpuuYIQmILy-3" vertex="1">
          <mxGeometry x="80" y="40" width="80" height="80" as="geometry" />
        </mxCell>
        <mxCell id="cWZ5Do7VtlpuuYIQmILy-5" value="analyzeData" style="points=[[0,0,0],[0.25,0,0],[0.5,0,0],[0.75,0,0],[1,0,0],[0,1,0],[0.25,1,0],[0.5,1,0],[0.75,1,0],[1,1,0],[0,0.25,0],[0,0.5,0],[0,0.75,0],[1,0.25,0],[1,0.5,0],[1,0.75,0]];outlineConnect=0;fontColor=light-dark(#000000,#606981);fillColor=#ED7100;strokeColor=light-dark(#000000,#606981);dashed=0;verticalLabelPosition=bottom;verticalAlign=top;align=center;fontSize=12;fontStyle=0;aspect=fixed;shape=mxgraph.aws4.resourceIcon;resIcon=mxgraph.aws4.lambda;labelBackgroundColor=none;rounded=1;labelBorderColor=none;textShadow=0;snapToPoint=0;fixDash=0;editable=1;movable=1;resizable=1;rotatable=1;deletable=1;locked=0;connectable=1;metaEdit=0;backgroundOutline=0;enumerate=0;comic=0;shadow=1;" parent="cWZ5Do7VtlpuuYIQmILy-3" vertex="1">
          <mxGeometry x="80" y="200" width="80" height="80" as="geometry" />
        </mxCell>
        <mxCell id="cWZ5Do7VtlpuuYIQmILy-6" value="" style="edgeStyle=orthogonalEdgeStyle;endArrow=block;elbow=vertical;startArrow=none;endFill=1;strokeColor=light-dark(#000000,#606981);rounded=1;exitX=0.5;exitY=1;exitDx=0;exitDy=0;exitPerimeter=0;entryX=0.5;entryY=0;entryDx=0;entryDy=0;entryPerimeter=0;fontColor=light-dark(#000000,#606981);labelBorderColor=none;textShadow=0;labelBackgroundColor=none;snapToPoint=0;fixDash=0;editable=1;movable=1;resizable=1;rotatable=1;deletable=1;locked=0;connectable=1;metaEdit=0;backgroundOutline=0;enumerate=0;comic=0;shadow=1;" parent="cWZ5Do7VtlpuuYIQmILy-3" source="cWZ5Do7VtlpuuYIQmILy-4" target="cWZ5Do7VtlpuuYIQmILy-5" edge="1">
          <mxGeometry width="100" relative="1" as="geometry">
            <mxPoint x="80" y="168" as="sourcePoint" />
            <mxPoint x="180" y="168" as="targetPoint" />
          </mxGeometry>
        </mxCell>
        <mxCell id="duLnAon6A_W3yUr4zGyu-176" value="" style="edgeStyle=orthogonalEdgeStyle;endArrow=block;elbow=vertical;startArrow=block;startFill=1;endFill=1;strokeColor=light-dark(#000000,#606981);rounded=1;exitX=0.5;exitY=0;exitDx=0;exitDy=0;exitPerimeter=0;entryX=0.5;entryY=1;entryDx=0;entryDy=0;fontColor=light-dark(#000000,#606981);labelBorderColor=none;textShadow=0;labelBackgroundColor=none;snapToPoint=0;fixDash=0;editable=1;movable=1;resizable=1;rotatable=1;deletable=1;locked=0;connectable=1;metaEdit=0;backgroundOutline=0;enumerate=0;comic=0;shadow=1;entryPerimeter=0;" parent="duLnAon6A_W3yUr4zGyu-52" source="duLnAon6A_W3yUr4zGyu-4" target="cWZ5Do7VtlpuuYIQmILy-23" edge="1">
          <mxGeometry width="100" relative="1" as="geometry">
            <mxPoint x="290" y="690" as="sourcePoint" />
            <mxPoint x="390" y="690" as="targetPoint" />
          </mxGeometry>
        </mxCell>
        <mxCell id="cWZ5Do7VtlpuuYIQmILy-19" value="&lt;font style=&quot;color: light-dark(rgb(0, 0, 0), rgb(96, 105, 129));&quot;&gt;EC2 instance contents&lt;/font&gt;" style="points=[[0,0],[0.25,0],[0.5,0],[0.75,0],[1,0],[1,0.25],[1,0.5],[1,0.75],[1,1],[0.75,1],[0.5,1],[0.25,1],[0,1],[0,0.75],[0,0.5],[0,0.25]];outlineConnect=0;gradientColor=none;html=1;whiteSpace=wrap;fontSize=12;fontStyle=0;container=1;pointerEvents=0;collapsible=0;recursiveResize=0;shape=mxgraph.aws4.group;grIcon=mxgraph.aws4.group_ec2_instance_contents;strokeColor=light-dark(#000000,#606981);fillColor=none;verticalAlign=top;align=left;spacingLeft=30;fontColor=#D86613;dashed=0;shadow=1;" parent="duLnAon6A_W3yUr4zGyu-52" vertex="1">
          <mxGeometry x="559" y="40" width="160" height="160" as="geometry" />
        </mxCell>
        <mxCell id="duLnAon6A_W3yUr4zGyu-112" value="Django" style="shape=image;editableCssRules=.*;image=data:image/svg+xml,PHN2ZyB2aWV3Qm94PSIwIDAgMjQgMjQiIHhtbG5zPSJodHRwOi8vd3d3LnczLm9yZy8yMDAwL3N2ZyI+PHN0eWxlPip7ZmlsbDojMDkyRTIwfTwvc3R5bGU+PHBhdGggZD0iTTExLjE0NiAwaDMuOTI0djE4LjE2NmMtMi4wMTMuMzgyLTMuNDkxLjUzNS01LjA5Ni41MzUtNC43OTEgMC03LjI4OC0yLjE2Ni03LjI4OC02LjMyIDAtNC4wMDIgMi42NS02LjYgNi43NTMtNi42LjYzNyAwIDEuMTIxLjA1IDEuNzA3LjIwM3ptMCA5LjE0M2EzLjg5NCAzLjg5NCAwIDAwLTEuMzI1LS4yMDRjLTEuOTg4IDAtMy4xMzQgMS4yMjMtMy4xMzQgMy4zNjUgMCAyLjA5IDEuMDk2IDMuMjM2IDMuMTA5IDMuMjM2LjQzMyAwIC43OS0uMDI1IDEuMzUtLjEwMlY5LjE0MnpNMjEuMzE0IDYuMDZ2OS4wOThjMCAzLjEzNC0uMjI5IDQuNjM4LS45MTcgNS45MzctLjYzNyAxLjI0OS0xLjQ3OCAyLjAzOS0zLjIxMSAyLjkwNWwtMy42NDQtMS43MzNjMS43MzMtLjgxNSAyLjU3NC0xLjUzIDMuMTA5LTIuNjI1LjU2MS0xLjEyMS43MzktMi40MjEuNzM5LTUuODM1VjYuMDU5aDMuOTI0ek0xNy4zOS4wMjFoMy45MjR2NC4wMjZIMTcuMzl6Ii8+PC9zdmc+;labelPosition=center;verticalLabelPosition=bottom;align=center;verticalAlign=top;labelBackgroundColor=none;fontColor=light-dark(#000000,#606981);rounded=1;labelBorderColor=none;textShadow=0;strokeColor=light-dark(#000000,#606981);snapToPoint=0;fixDash=0;editable=1;movable=1;resizable=1;rotatable=1;deletable=1;locked=0;connectable=1;metaEdit=0;backgroundOutline=0;enumerate=0;comic=0;shadow=1;" parent="cWZ5Do7VtlpuuYIQmILy-19" vertex="1">
          <mxGeometry x="40" y="40" width="80" height="80" as="geometry" />
        </mxCell>
        <mxCell id="cWZ5Do7VtlpuuYIQmILy-23" value="&lt;font style=&quot;color: light-dark(rgb(0, 0, 0), rgb(96, 105, 129));&quot;&gt;Elastic Load Balancer&lt;/font&gt;" style="sketch=0;points=[[0,0,0],[0.25,0,0],[0.5,0,0],[0.75,0,0],[1,0,0],[0,1,0],[0.25,1,0],[0.5,1,0],[0.75,1,0],[1,1,0],[0,0.25,0],[0,0.5,0],[0,0.75,0],[1,0.25,0],[1,0.5,0],[1,0.75,0]];outlineConnect=0;fontColor=#232F3E;fillColor=#ED7100;strokeColor=light-dark(#000000,#606981);dashed=0;verticalLabelPosition=bottom;verticalAlign=top;align=center;html=1;fontSize=12;fontStyle=0;aspect=fixed;shape=mxgraph.aws4.resourceIcon;resIcon=mxgraph.aws4.elastic_load_balancing;shadow=1;" parent="duLnAon6A_W3yUr4zGyu-52" vertex="1">
          <mxGeometry x="600" y="320" width="78" height="78" as="geometry" />
        </mxCell>
        <mxCell id="cWZ5Do7VtlpuuYIQmILy-24" value="" style="edgeStyle=orthogonalEdgeStyle;endArrow=block;elbow=vertical;startArrow=block;startFill=1;endFill=1;strokeColor=light-dark(#000000,#606981);rounded=1;exitX=0.5;exitY=1;exitDx=0;exitDy=0;entryX=0.5;entryY=0;entryDx=0;entryDy=0;fontColor=light-dark(#000000,#606981);labelBorderColor=none;textShadow=0;labelBackgroundColor=none;snapToPoint=0;fixDash=0;editable=1;movable=1;resizable=1;rotatable=1;deletable=1;locked=0;connectable=1;metaEdit=0;backgroundOutline=0;enumerate=0;comic=0;shadow=1;entryPerimeter=0;" parent="duLnAon6A_W3yUr4zGyu-52" source="duLnAon6A_W3yUr4zGyu-112" target="cWZ5Do7VtlpuuYIQmILy-23" edge="1">
          <mxGeometry width="100" relative="1" as="geometry">
            <mxPoint x="670" y="990" as="sourcePoint" />
            <mxPoint x="670" y="1032" as="targetPoint" />
          </mxGeometry>
        </mxCell>
        <mxCell id="duLnAon6A_W3yUr4zGyu-40" value="DynamoDB" style="points=[[0,0,0],[0.25,0,0],[0.5,0,0],[0.75,0,0],[1,0,0],[0,1,0],[0.25,1,0],[0.5,1,0],[0.75,1,0],[1,1,0],[0,0.25,0],[0,0.5,0],[0,0.75,0],[1,0.25,0],[1,0.5,0],[1,0.75,0]];outlineConnect=0;fontColor=light-dark(#000000,#606981);fillColor=light-dark(#4A65E3,#4A65E3);strokeColor=light-dark(#000000,#606981);dashed=0;verticalLabelPosition=bottom;verticalAlign=top;align=center;fontSize=12;fontStyle=0;aspect=fixed;shape=mxgraph.aws4.resourceIcon;resIcon=mxgraph.aws4.dynamodb;labelBackgroundColor=none;rounded=1;labelBorderColor=none;textShadow=0;snapToPoint=0;fixDash=0;editable=1;movable=1;resizable=1;rotatable=1;deletable=1;locked=0;connectable=1;metaEdit=0;backgroundOutline=0;enumerate=0;comic=0;shadow=1;" parent="duLnAon6A_W3yUr4zGyu-52" vertex="1">
          <mxGeometry x="440" y="280" width="80" height="80" as="geometry" />
        </mxCell>
        <mxCell id="cWZ5Do7VtlpuuYIQmILy-37" value="" style="edgeStyle=orthogonalEdgeStyle;endArrow=block;elbow=vertical;startArrow=none;endFill=1;strokeColor=light-dark(#000000,#606981);rounded=1;exitX=0;exitY=0.5;exitDx=0;exitDy=0;exitPerimeter=0;entryX=1;entryY=0.5;entryDx=0;entryDy=0;entryPerimeter=0;fontColor=light-dark(#000000,#606981);labelBorderColor=none;textShadow=0;labelBackgroundColor=none;snapToPoint=0;fixDash=0;editable=1;movable=1;resizable=1;rotatable=1;deletable=1;locked=0;connectable=1;metaEdit=0;backgroundOutline=0;enumerate=0;comic=0;shadow=1;" parent="duLnAon6A_W3yUr4zGyu-52" source="duLnAon6A_W3yUr4zGyu-40" target="duLnAon6A_W3yUr4zGyu-26" edge="1">
          <mxGeometry width="100" relative="1" as="geometry">
            <mxPoint x="310" y="220" as="sourcePoint" />
            <mxPoint x="310" y="340" as="targetPoint" />
          </mxGeometry>
        </mxCell>
        <mxCell id="cWZ5Do7VtlpuuYIQmILy-38" value="" style="edgeStyle=orthogonalEdgeStyle;endArrow=block;elbow=vertical;startArrow=none;endFill=1;strokeColor=light-dark(#000000,#606981);rounded=1;exitX=1;exitY=0.5;exitDx=0;exitDy=0;exitPerimeter=0;entryX=0;entryY=0.5;entryDx=0;entryDy=0;entryPerimeter=0;fontColor=light-dark(#000000,#606981);labelBorderColor=none;textShadow=0;labelBackgroundColor=none;snapToPoint=0;fixDash=0;editable=1;movable=1;resizable=1;rotatable=1;deletable=1;locked=0;connectable=1;metaEdit=0;backgroundOutline=0;enumerate=0;comic=0;shadow=1;" parent="duLnAon6A_W3yUr4zGyu-52" source="cWZ5Do7VtlpuuYIQmILy-10" target="duLnAon6A_W3yUr4zGyu-12" edge="1">
          <mxGeometry width="100" relative="1" as="geometry">
            <mxPoint x="480" y="310" as="sourcePoint" />
            <mxPoint x="320" y="310" as="targetPoint" />
          </mxGeometry>
        </mxCell>
        <mxCell id="cWZ5Do7VtlpuuYIQmILy-39" value="" style="edgeStyle=orthogonalEdgeStyle;endArrow=block;elbow=vertical;startArrow=none;endFill=1;strokeColor=light-dark(#000000,#606981);rounded=1;exitX=0;exitY=0.5;exitDx=0;exitDy=0;exitPerimeter=0;entryX=0.5;entryY=0;entryDx=0;entryDy=0;entryPerimeter=0;fontColor=light-dark(#000000,#606981);labelBorderColor=none;textShadow=0;labelBackgroundColor=none;snapToPoint=0;fixDash=0;editable=1;movable=1;resizable=1;rotatable=1;deletable=1;locked=0;connectable=1;metaEdit=0;backgroundOutline=0;enumerate=0;comic=0;shadow=1;" parent="duLnAon6A_W3yUr4zGyu-52" source="duLnAon6A_W3yUr4zGyu-48" target="cWZ5Do7VtlpuuYIQmILy-4" edge="1">
          <mxGeometry width="100" relative="1" as="geometry">
            <mxPoint x="390" y="680" as="sourcePoint" />
            <mxPoint x="550" y="680" as="targetPoint" />
          </mxGeometry>
        </mxCell>
        <mxCell id="cWZ5Do7VtlpuuYIQmILy-40" value="" style="edgeStyle=orthogonalEdgeStyle;endArrow=block;elbow=vertical;startArrow=none;endFill=1;strokeColor=light-dark(#000000,#606981);rounded=1;exitX=0.5;exitY=1;exitDx=0;exitDy=0;exitPerimeter=0;entryX=0.5;entryY=1;entryDx=0;entryDy=0;entryPerimeter=0;fontColor=light-dark(#000000,#606981);labelBorderColor=none;textShadow=0;labelBackgroundColor=none;snapToPoint=0;fixDash=0;editable=1;movable=1;resizable=1;rotatable=1;deletable=1;locked=0;connectable=1;metaEdit=0;backgroundOutline=0;enumerate=0;comic=0;shadow=1;" parent="duLnAon6A_W3yUr4zGyu-52" source="cWZ5Do7VtlpuuYIQmILy-5" target="duLnAon6A_W3yUr4zGyu-48" edge="1">
          <mxGeometry width="100" relative="1" as="geometry">
            <mxPoint x="800" y="890" as="sourcePoint" />
            <mxPoint x="440" y="971" as="targetPoint" />
          </mxGeometry>
        </mxCell>
        <mxCell id="DrgMB1DeXn5-ROTc9sJ6-2" value="" style="edgeStyle=orthogonalEdgeStyle;endArrow=block;elbow=vertical;startArrow=none;endFill=1;strokeColor=light-dark(#000000,#606981);rounded=1;exitX=0.5;exitY=1;exitDx=0;exitDy=0;exitPerimeter=0;entryX=1;entryY=0.5;entryDx=0;entryDy=0;entryPerimeter=0;fontColor=light-dark(#000000,#606981);labelBorderColor=none;textShadow=0;labelBackgroundColor=none;snapToPoint=0;fixDash=0;editable=1;movable=1;resizable=1;rotatable=1;deletable=1;locked=0;connectable=1;metaEdit=0;backgroundOutline=0;enumerate=0;comic=0;shadow=1;" edge="1" parent="duLnAon6A_W3yUr4zGyu-52" source="duLnAon6A_W3yUr4zGyu-12" target="cWZ5Do7VtlpuuYIQmILy-4">
          <mxGeometry width="100" relative="1" as="geometry">
            <mxPoint x="860" y="840" as="sourcePoint" />
            <mxPoint x="500" y="921" as="targetPoint" />
          </mxGeometry>
        </mxCell>
        <mxCell id="duLnAon6A_W3yUr4zGyu-125" value="Git" style="shape=image;editableCssRules=.*;image=data:image/svg+xml,PHN2ZyB2aWV3Qm94PSIwIDAgMjQgMjQiIHhtbG5zPSJodHRwOi8vd3d3LnczLm9yZy8yMDAwL3N2ZyI+PHN0eWxlPip7ZmlsbDojRjA1MDMyfTwvc3R5bGU+PHBhdGggZD0iTTIzLjU0NiAxMC45M0wxMy4wNjcuNDUyYy0uNjA0LS42MDMtMS41ODItLjYwMy0yLjE4OCAwTDguNzA4IDIuNjI3bDIuNzYgMi43NmMuNjQ1LS4yMTUgMS4zNzktLjA3IDEuODg5LjQ0MS41MTYuNTE1LjY1OCAxLjI1OC40MzggMS45bDIuNjU4IDIuNjZjLjY0NS0uMjIzIDEuMzg3LS4wNzggMS45LjQzNS43MjEuNzIuNzIxIDEuODg0IDAgMi42MDQtLjcxOS43MTktMS44ODEuNzE5LTIuNiAwLS41MzktLjU0MS0uNjc0LTEuMzM3LS40MDQtMS45OTZMMTIuODYgOC45NTV2Ni41MjVjLjE3Ni4wODYuMzQyLjIwMy40ODguMzQ4LjcxMy43MjEuNzEzIDEuODgzIDAgMi42LS43MTkuNzIxLTEuODg5LjcyMS0yLjYwOSAwLS43MTktLjcxOS0uNzE5LTEuODc5IDAtMi41OTguMTgyLS4xOC4zODctLjMxNi42MDUtLjQwNlY4LjgzNWMtLjIxNy0uMDkxLS40MjQtLjIyMi0uNi0uNDAxLS41NDUtLjU0NS0uNjc2LTEuMzQyLS4zOTYtMi4wMDlMNy42MzYgMy43LjQ1IDEwLjg4MWMtLjYuNjA1LS42IDEuNTg0IDAgMi4xODlsMTAuNDggMTAuNDc3Yy42MDQuNjA0IDEuNTgyLjYwNCAyLjE4NiAwbDEwLjQzLTEwLjQzYy42MDUtLjYwMy42MDUtMS41ODIgMC0yLjE4NyIvPjwvc3ZnPg==;labelPosition=center;verticalLabelPosition=bottom;align=center;verticalAlign=top;labelBackgroundColor=none;fontColor=light-dark(#000000,#606981);rounded=1;labelBorderColor=none;textShadow=0;strokeColor=light-dark(#000000,#606981);shadow=1;snapToPoint=0;fixDash=0;editable=1;movable=1;resizable=1;rotatable=1;deletable=1;locked=0;connectable=1;metaEdit=0;backgroundOutline=0;enumerate=0;comic=0;" parent="1" vertex="1">
          <mxGeometry x="160" y="200" width="80" height="80" as="geometry" />
        </mxCell>
        <mxCell id="duLnAon6A_W3yUr4zGyu-129" value="" style="edgeStyle=orthogonalEdgeStyle;endArrow=block;elbow=vertical;startArrow=none;endFill=1;strokeColor=light-dark(#000000,#606981);rounded=1;entryX=0.5;entryY=1;entryDx=0;entryDy=0;fontColor=light-dark(#000000,#606981);labelBorderColor=none;textShadow=0;labelBackgroundColor=none;shadow=1;snapToPoint=0;fixDash=0;editable=1;movable=1;resizable=1;rotatable=1;deletable=1;locked=0;connectable=1;metaEdit=0;backgroundOutline=0;enumerate=0;comic=0;" parent="1" source="UEzPUAAOIrF-is8g5C7q-109" target="duLnAon6A_W3yUr4zGyu-125" edge="1">
          <mxGeometry width="100" relative="1" as="geometry">
            <mxPoint x="30" y="230" as="sourcePoint" />
            <mxPoint x="130" y="230" as="targetPoint" />
          </mxGeometry>
        </mxCell>
        <mxCell id="duLnAon6A_W3yUr4zGyu-135" value="" style="edgeStyle=orthogonalEdgeStyle;endArrow=block;elbow=vertical;startArrow=none;endFill=1;strokeColor=light-dark(#000000,#606981);rounded=1;entryX=0.5;entryY=1;entryDx=0;entryDy=0;exitX=0.5;exitY=0;exitDx=0;exitDy=0;fontColor=light-dark(#000000,#606981);labelBorderColor=none;textShadow=0;labelBackgroundColor=none;shadow=1;snapToPoint=0;fixDash=0;editable=1;movable=1;resizable=1;rotatable=1;deletable=1;locked=0;connectable=1;metaEdit=0;backgroundOutline=0;enumerate=0;comic=0;flowAnimation=0;" parent="1" source="duLnAon6A_W3yUr4zGyu-125" target="duLnAon6A_W3yUr4zGyu-5" edge="1">
          <mxGeometry width="100" relative="1" as="geometry">
            <mxPoint x="40" y="-20" as="sourcePoint" />
            <mxPoint x="140" y="-20" as="targetPoint" />
          </mxGeometry>
        </mxCell>
        <mxCell id="duLnAon6A_W3yUr4zGyu-137" value="Discord" style="shape=image;editableCssRules=.*;image=data:image/svg+xml,PHN2ZyB2aWV3Qm94PSIwIDAgMjQgMjQiIHhtbG5zPSJodHRwOi8vd3d3LnczLm9yZy8yMDAwL3N2ZyI+PHN0eWxlPip7ZmlsbDojNTg2NUYyfTwvc3R5bGU+PHBhdGggZD0iTTIwLjMxNyA0LjM2OThhMTkuNzkxMyAxOS43OTEzIDAgMDAtNC44ODUxLTEuNTE1Mi4wNzQxLjA3NDEgMCAwMC0uMDc4NS4wMzcxYy0uMjExLjM3NTMtLjQ0NDcuODY0OC0uNjA4MyAxLjI0OTUtMS44NDQ3LS4yNzYyLTMuNjgtLjI3NjItNS40ODY4IDAtLjE2MzYtLjM5MzMtLjQwNTgtLjg3NDItLjYxNzctMS4yNDk1YS4wNzcuMDc3IDAgMDAtLjA3ODUtLjAzNyAxOS43MzYzIDE5LjczNjMgMCAwMC00Ljg4NTIgMS41MTUuMDY5OS4wNjk5IDAgMDAtLjAzMjEuMDI3N0MuNTMzNCA5LjA0NTgtLjMxOSAxMy41Nzk5LjA5OTIgMTguMDU3OGEuMDgyNC4wODI0IDAgMDAuMDMxMi4wNTYxYzIuMDUyOCAxLjUwNzYgNC4wNDEzIDIuNDIyOCA1Ljk5MjkgMy4wMjk0YS4wNzc3LjA3NzcgMCAwMC4wODQyLS4wMjc2Yy40NjE2LS42MzA0Ljg3MzEtMS4yOTUyIDEuMjI2LTEuOTk0MmEuMDc2LjA3NiAwIDAwLS4wNDE2LS4xMDU3Yy0uNjUyOC0uMjQ3Ni0xLjI3NDMtLjU0OTUtMS44NzIyLS44OTIzYS4wNzcuMDc3IDAgMDEtLjAwNzYtLjEyNzdjLjEyNTgtLjA5NDMuMjUxNy0uMTkyMy4zNzE4LS4yOTE0YS4wNzQzLjA3NDMgMCAwMS4wNzc2LS4wMTA1YzMuOTI3OCAxLjc5MzMgOC4xOCAxLjc5MzMgMTIuMDYxNCAwYS4wNzM5LjA3MzkgMCAwMS4wNzg1LjAwOTVjLjEyMDIuMDk5LjI0Ni4xOTgxLjM3MjguMjkyNGEuMDc3LjA3NyAwIDAxLS4wMDY2LjEyNzYgMTIuMjk4NiAxMi4yOTg2IDAgMDEtMS44NzMuODkxNC4wNzY2LjA3NjYgMCAwMC0uMDQwNy4xMDY3Yy4zNjA0LjY5OC43NzE5IDEuMzYyOCAxLjIyNSAxLjk5MzJhLjA3Ni4wNzYgMCAwMC4wODQyLjAyODZjMS45NjEtLjYwNjcgMy45NDk1LTEuNTIxOSA2LjAwMjMtMy4wMjk0YS4wNzcuMDc3IDAgMDAuMDMxMy0uMDU1MmMuNTAwNC01LjE3Ny0uODM4Mi05LjY3MzktMy41NDg1LTEzLjY2MDRhLjA2MS4wNjEgMCAwMC0uMDMxMi0uMDI4NnpNOC4wMiAxNS4zMzEyYy0xLjE4MjUgMC0yLjE1NjktMS4wODU3LTIuMTU2OS0yLjQxOSAwLTEuMzMzMi45NTU1LTIuNDE4OSAyLjE1Ny0yLjQxODkgMS4yMTA4IDAgMi4xNzU3IDEuMDk1MiAyLjE1NjggMi40MTkgMCAxLjMzMzItLjk1NTUgMi40MTg5LTIuMTU2OSAyLjQxODl6bTcuOTc0OCAwYy0xLjE4MjUgMC0yLjE1NjktMS4wODU3LTIuMTU2OS0yLjQxOSAwLTEuMzMzMi45NTU0LTIuNDE4OSAyLjE1NjktMi40MTg5IDEuMjEwOCAwIDIuMTc1NyAxLjA5NTIgMi4xNTY4IDIuNDE5IDAgMS4zMzMyLS45NDYgMi40MTg5LTIuMTU2OCAyLjQxODlaIi8+PC9zdmc+;labelPosition=center;verticalLabelPosition=bottom;align=center;verticalAlign=top;labelBackgroundColor=none;fontColor=light-dark(#000000,#606981);rounded=1;labelBorderColor=none;textShadow=0;strokeColor=light-dark(#000000,#606981);shadow=1;snapToPoint=0;fixDash=0;editable=1;movable=1;resizable=1;rotatable=1;deletable=1;locked=0;connectable=1;metaEdit=0;backgroundOutline=0;enumerate=0;comic=0;" parent="1" vertex="1">
          <mxGeometry x="1320" y="40" width="80" height="80" as="geometry" />
        </mxCell>
        <mxCell id="duLnAon6A_W3yUr4zGyu-138" value="Discord Bot" style="shape=image;editableCssRules=.*;image=data:image/svg+xml,PHN2ZyB2aWV3Qm94PSIwIDAgMjQgMjQiIHhtbG5zPSJodHRwOi8vd3d3LnczLm9yZy8yMDAwL3N2ZyI+PHN0eWxlPip7ZmlsbDojMjQ5NkVEfTwvc3R5bGU+PHBhdGggZD0iTTEzLjk4MyAxMS4wNzhoMi4xMTlhLjE4Ni4xODYgMCAwMC4xODYtLjE4NVY5LjAwNmEuMTg2LjE4NiAwIDAwLS4xODYtLjE4NmgtMi4xMTlhLjE4NS4xODUgMCAwMC0uMTg1LjE4NXYxLjg4OGMwIC4xMDIuMDgzLjE4NS4xODUuMTg1bS0yLjk1NC01LjQzaDIuMTE4YS4xODYuMTg2IDAgMDAuMTg2LS4xODZWMy41NzRhLjE4Ni4xODYgMCAwMC0uMTg2LS4xODVoLTIuMTE4YS4xODUuMTg1IDAgMDAtLjE4NS4xODV2MS44ODhjMCAuMTAyLjA4Mi4xODUuMTg1LjE4NW0wIDIuNzE2aDIuMTE4YS4xODcuMTg3IDAgMDAuMTg2LS4xODZWNi4yOWEuMTg2LjE4NiAwIDAwLS4xODYtLjE4NWgtMi4xMThhLjE4NS4xODUgMCAwMC0uMTg1LjE4NXYxLjg4N2MwIC4xMDIuMDgyLjE4NS4xODUuMTg2bS0yLjkzIDBoMi4xMmEuMTg2LjE4NiAwIDAwLjE4NC0uMTg2VjYuMjlhLjE4NS4xODUgMCAwMC0uMTg1LS4xODVIOC4xYS4xODUuMTg1IDAgMDAtLjE4NS4xODV2MS44ODdjMCAuMTAyLjA4My4xODUuMTg1LjE4Nm0tMi45NjQgMGgyLjExOWEuMTg2LjE4NiAwIDAwLjE4NS0uMTg2VjYuMjlhLjE4NS4xODUgMCAwMC0uMTg1LS4xODVINS4xMzZhLjE4Ni4xODYgMCAwMC0uMTg2LjE4NXYxLjg4N2MwIC4xMDIuMDg0LjE4NS4xODYuMTg2bTUuODkzIDIuNzE1aDIuMTE4YS4xODYuMTg2IDAgMDAuMTg2LS4xODVWOS4wMDZhLjE4Ni4xODYgMCAwMC0uMTg2LS4xODZoLTIuMTE4YS4xODUuMTg1IDAgMDAtLjE4NS4xODV2MS44ODhjMCAuMTAyLjA4Mi4xODUuMTg1LjE4NW0tMi45MyAwaDIuMTJhLjE4NS4xODUgMCAwMC4xODQtLjE4NVY5LjAwNmEuMTg1LjE4NSAwIDAwLS4xODQtLjE4NmgtMi4xMmEuMTg1LjE4NSAwIDAwLS4xODQuMTg1djEuODg4YzAgLjEwMi4wODMuMTg1LjE4NS4xODVtLTIuOTY0IDBoMi4xMTlhLjE4NS4xODUgMCAwMC4xODUtLjE4NVY5LjAwNmEuMTg1LjE4NSAwIDAwLS4xODQtLjE4NmgtMi4xMmEuMTg2LjE4NiAwIDAwLS4xODYuMTg2djEuODg3YzAgLjEwMi4wODQuMTg1LjE4Ni4xODVtLTIuOTIgMGgyLjEyYS4xODUuMTg1IDAgMDAuMTg0LS4xODVWOS4wMDZhLjE4NS4xODUgMCAwMC0uMTg0LS4xODZoLTIuMTJhLjE4NS4xODUgMCAwMC0uMTg0LjE4NXYxLjg4OGMwIC4xMDIuMDgyLjE4NS4xODUuMTg1TTIzLjc2MyA5Ljg5Yy0uMDY1LS4wNTEtLjY3Mi0uNTEtMS45NTQtLjUxLS4zMzguMDAxLS42NzYuMDMtMS4wMS4wODctLjI0OC0xLjctMS42NTMtMi41My0xLjcxNi0yLjU2NmwtLjM0NC0uMTk5LS4yMjYuMzI3Yy0uMjg0LjQzOC0uNDkuOTIyLS42MTIgMS40My0uMjMuOTctLjA5IDEuODgyLjQwMyAyLjY2MS0uNTk1LjMzMi0xLjU1LjQxMy0xLjc0NC40MkguNzUxYS43NTEuNzUxIDAgMDAtLjc1Ljc0OCAxMS4zNzYgMTEuMzc2IDAgMDAuNjkyIDQuMDYyYy41NDUgMS40MjggMS4zNTUgMi40OCAyLjQxIDMuMTI0IDEuMTguNzIzIDMuMSAxLjEzNyA1LjI3NSAxLjEzNy45ODMuMDAzIDEuOTYzLS4wODYgMi45My0uMjY2YTEyLjI0OCAxMi4yNDggMCAwMDMuODIzLTEuMzg5Yy45OC0uNTY3IDEuODYtMS4yODggMi42MS0yLjEzNiAxLjI1Mi0xLjQxOCAxLjk5OC0yLjk5NyAyLjU1My00LjRoLjIyMWMxLjM3MiAwIDIuMjE1LS41NDkgMi42OC0xLjAwOS4zMDktLjI5My41NS0uNjUuNzA3LTEuMDQ2bC4wOTgtLjI4OFoiLz48L3N2Zz4=;labelPosition=center;verticalLabelPosition=bottom;align=center;verticalAlign=top;labelBackgroundColor=none;fontColor=light-dark(#000000,#606981);rounded=1;labelBorderColor=none;textShadow=0;strokeColor=light-dark(#000000,#606981);shadow=1;snapToPoint=0;fixDash=0;editable=1;movable=1;resizable=1;rotatable=1;deletable=1;locked=0;connectable=1;metaEdit=0;backgroundOutline=0;enumerate=0;comic=0;" parent="1" vertex="1">
          <mxGeometry x="1160" y="40" width="80" height="80" as="geometry" />
        </mxCell>
        <mxCell id="duLnAon6A_W3yUr4zGyu-152" value="Market API" style="outlineConnect=0;fontColor=light-dark(#000000,#606981);gradientColor=none;fillColor=#E7157B;strokeColor=light-dark(#000000,#606981);dashed=0;verticalLabelPosition=bottom;verticalAlign=top;align=center;fontSize=12;fontStyle=0;aspect=fixed;pointerEvents=1;shape=mxgraph.aws4.endpoint;points=[[0,0.5,0,0,0]];labelBackgroundColor=none;rounded=1;labelBorderColor=none;textShadow=0;shadow=1;snapToPoint=0;fixDash=0;editable=1;movable=1;resizable=1;rotatable=1;deletable=1;locked=0;connectable=1;metaEdit=0;backgroundOutline=0;enumerate=0;comic=0;" parent="1" vertex="1">
          <mxGeometry x="1160" y="-120" width="80" height="80" as="geometry" />
        </mxCell>
        <mxCell id="duLnAon6A_W3yUr4zGyu-153" value="" style="edgeStyle=orthogonalEdgeStyle;endArrow=none;elbow=vertical;startArrow=block;startFill=1;strokeColor=light-dark(#000000,#606981);rounded=1;fontColor=light-dark(#000000,#606981);labelBorderColor=none;textShadow=0;labelBackgroundColor=none;shadow=1;snapToPoint=0;fixDash=0;editable=1;movable=1;resizable=1;rotatable=1;deletable=1;locked=0;connectable=1;metaEdit=0;backgroundOutline=0;enumerate=0;comic=0;entryX=0;entryY=0.5;entryDx=0;entryDy=0;entryPerimeter=0;" parent="1" source="duLnAon6A_W3yUr4zGyu-58" target="duLnAon6A_W3yUr4zGyu-152" edge="1">
          <mxGeometry width="100" relative="1" as="geometry">
            <mxPoint x="1040" y="-360" as="sourcePoint" />
            <mxPoint x="1350" y="-350" as="targetPoint" />
          </mxGeometry>
        </mxCell>
        <mxCell id="duLnAon6A_W3yUr4zGyu-165" value="" style="edgeStyle=orthogonalEdgeStyle;endArrow=block;elbow=vertical;startArrow=block;startFill=1;endFill=1;strokeColor=light-dark(#000000,#606981);rounded=1;exitX=1;exitY=0.5;exitDx=0;exitDy=0;exitPerimeter=0;entryX=0;entryY=0.5;entryDx=0;entryDy=0;fontColor=light-dark(#000000,#606981);labelBorderColor=none;textShadow=0;labelBackgroundColor=none;shadow=1;snapToPoint=0;fixDash=0;editable=1;movable=1;resizable=1;rotatable=1;deletable=1;locked=0;connectable=1;metaEdit=0;backgroundOutline=0;enumerate=0;comic=0;flowAnimation=0;" parent="1" source="duLnAon6A_W3yUr4zGyu-4" target="duLnAon6A_W3yUr4zGyu-138" edge="1">
          <mxGeometry width="100" relative="1" as="geometry">
            <mxPoint x="1360" y="30" as="sourcePoint" />
            <mxPoint x="1460" y="30" as="targetPoint" />
          </mxGeometry>
        </mxCell>
        <mxCell id="duLnAon6A_W3yUr4zGyu-167" value="" style="edgeStyle=orthogonalEdgeStyle;endArrow=block;elbow=vertical;startArrow=block;startFill=1;endFill=1;strokeColor=light-dark(#000000,#606981);rounded=1;exitX=1;exitY=0.5;exitDx=0;exitDy=0;entryX=0;entryY=0.5;entryDx=0;entryDy=0;fontColor=light-dark(#000000,#606981);labelBorderColor=none;textShadow=0;labelBackgroundColor=none;shadow=1;snapToPoint=0;fixDash=0;editable=1;movable=1;resizable=1;rotatable=1;deletable=1;locked=0;connectable=1;metaEdit=0;backgroundOutline=0;enumerate=0;comic=0;" parent="1" source="duLnAon6A_W3yUr4zGyu-138" target="duLnAon6A_W3yUr4zGyu-137" edge="1">
          <mxGeometry width="100" relative="1" as="geometry">
            <mxPoint x="1480" y="-130" as="sourcePoint" />
            <mxPoint x="1580" y="-130" as="targetPoint" />
          </mxGeometry>
        </mxCell>
        <mxCell id="cWZ5Do7VtlpuuYIQmILy-14" value="" style="edgeStyle=orthogonalEdgeStyle;endArrow=block;elbow=vertical;startArrow=none;endFill=1;strokeColor=light-dark(#000000,#606981);rounded=1;exitX=1;exitY=0.5;exitDx=0;exitDy=0;entryX=0;entryY=0.5;entryDx=0;entryDy=0;entryPerimeter=0;fontColor=light-dark(#000000,#606981);labelBorderColor=none;textShadow=0;labelBackgroundColor=none;shadow=1;snapToPoint=0;fixDash=0;editable=1;movable=1;resizable=1;rotatable=1;deletable=1;locked=0;connectable=1;metaEdit=0;backgroundOutline=0;enumerate=0;comic=0;curved=0;" parent="1" source="duLnAon6A_W3yUr4zGyu-5" target="duLnAon6A_W3yUr4zGyu-26" edge="1">
          <mxGeometry width="100" relative="1" as="geometry">
            <mxPoint x="380" y="270" as="sourcePoint" />
            <mxPoint x="660" y="550" as="targetPoint" />
          </mxGeometry>
        </mxCell>
        <mxCell id="cWZ5Do7VtlpuuYIQmILy-31" value="" style="edgeStyle=orthogonalEdgeStyle;endArrow=block;elbow=vertical;startArrow=none;endFill=1;strokeColor=light-dark(#000000,#606981);rounded=1;exitX=1;exitY=0.5;exitDx=0;exitDy=0;entryX=0;entryY=0.5;entryDx=0;entryDy=0;entryPerimeter=0;fontColor=light-dark(#000000,#606981);labelBorderColor=none;textShadow=0;labelBackgroundColor=none;shadow=1;snapToPoint=0;fixDash=0;editable=1;movable=1;resizable=1;rotatable=1;deletable=1;locked=0;connectable=1;metaEdit=0;backgroundOutline=0;enumerate=0;comic=0;curved=0;" parent="1" source="duLnAon6A_W3yUr4zGyu-5" target="duLnAon6A_W3yUr4zGyu-58" edge="1">
          <mxGeometry width="100" relative="1" as="geometry">
            <mxPoint x="380" y="230" as="sourcePoint" />
            <mxPoint x="660" y="-10" as="targetPoint" />
          </mxGeometry>
        </mxCell>
        <mxCell id="cWZ5Do7VtlpuuYIQmILy-32" value="" style="edgeStyle=orthogonalEdgeStyle;endArrow=block;elbow=vertical;startArrow=none;endFill=1;strokeColor=light-dark(#000000,#606981);rounded=1;exitX=1;exitY=0.5;exitDx=0;exitDy=0;entryX=0;entryY=0.5;entryDx=0;entryDy=0;entryPerimeter=0;fontColor=light-dark(#000000,#606981);labelBorderColor=none;textShadow=0;labelBackgroundColor=none;shadow=1;snapToPoint=0;fixDash=0;editable=1;movable=1;resizable=1;rotatable=1;deletable=1;locked=0;connectable=1;metaEdit=0;backgroundOutline=0;enumerate=0;comic=0;curved=0;" parent="1" source="duLnAon6A_W3yUr4zGyu-5" target="cWZ5Do7VtlpuuYIQmILy-9" edge="1">
          <mxGeometry width="100" relative="1" as="geometry">
            <mxPoint x="360" y="160" as="sourcePoint" />
            <mxPoint x="640" y="40" as="targetPoint" />
          </mxGeometry>
        </mxCell>
        <mxCell id="cWZ5Do7VtlpuuYIQmILy-33" value="" style="edgeStyle=orthogonalEdgeStyle;endArrow=block;elbow=vertical;startArrow=none;endFill=1;strokeColor=light-dark(#000000,#606981);rounded=1;exitX=1;exitY=0.5;exitDx=0;exitDy=0;entryX=0;entryY=0.5;entryDx=0;entryDy=0;entryPerimeter=0;fontColor=light-dark(#000000,#606981);labelBorderColor=none;textShadow=0;labelBackgroundColor=none;shadow=1;snapToPoint=0;fixDash=0;editable=1;movable=1;resizable=1;rotatable=1;deletable=1;locked=0;connectable=1;metaEdit=0;backgroundOutline=0;enumerate=0;comic=0;curved=0;" parent="1" source="duLnAon6A_W3yUr4zGyu-5" target="cWZ5Do7VtlpuuYIQmILy-10" edge="1">
          <mxGeometry width="100" relative="1" as="geometry">
            <mxPoint x="430" y="60" as="sourcePoint" />
            <mxPoint x="710" y="60" as="targetPoint" />
          </mxGeometry>
        </mxCell>
        <mxCell id="cWZ5Do7VtlpuuYIQmILy-34" value="" style="edgeStyle=orthogonalEdgeStyle;endArrow=block;elbow=vertical;startArrow=none;endFill=1;strokeColor=light-dark(#000000,#606981);rounded=1;exitX=1;exitY=0.5;exitDx=0;exitDy=0;entryX=0;entryY=0.5;entryDx=0;entryDy=0;entryPerimeter=0;fontColor=light-dark(#000000,#606981);labelBorderColor=none;textShadow=0;labelBackgroundColor=none;shadow=1;snapToPoint=0;fixDash=0;editable=1;movable=1;resizable=1;rotatable=1;deletable=1;locked=0;connectable=1;metaEdit=0;backgroundOutline=0;enumerate=0;comic=0;curved=0;" parent="1" source="duLnAon6A_W3yUr4zGyu-5" target="cWZ5Do7VtlpuuYIQmILy-4" edge="1">
          <mxGeometry width="100" relative="1" as="geometry">
            <mxPoint x="390" y="150" as="sourcePoint" />
            <mxPoint x="670" y="270" as="targetPoint" />
          </mxGeometry>
        </mxCell>
        <mxCell id="cWZ5Do7VtlpuuYIQmILy-35" value="" style="edgeStyle=orthogonalEdgeStyle;endArrow=block;elbow=vertical;startArrow=none;endFill=1;strokeColor=light-dark(#000000,#606981);rounded=1;exitX=1;exitY=0.5;exitDx=0;exitDy=0;entryX=0;entryY=0.5;entryDx=0;entryDy=0;entryPerimeter=0;fontColor=light-dark(#000000,#606981);labelBorderColor=none;textShadow=0;labelBackgroundColor=none;shadow=1;snapToPoint=0;fixDash=0;editable=1;movable=1;resizable=1;rotatable=1;deletable=1;locked=0;connectable=1;metaEdit=0;backgroundOutline=0;enumerate=0;comic=0;curved=0;" parent="1" source="duLnAon6A_W3yUr4zGyu-5" target="cWZ5Do7VtlpuuYIQmILy-5" edge="1">
          <mxGeometry width="100" relative="1" as="geometry">
            <mxPoint x="390" y="350" as="sourcePoint" />
            <mxPoint x="670" y="670" as="targetPoint" />
          </mxGeometry>
        </mxCell>
      </root>
    </mxGraphModel>
  </diagram>
</mxfile>
